HIERARCHY
ROOT Pelvis
{
	OFFSET 0.000000 0.000000 0.000000
	CHANNELS 6 Xposition Yposition Zposition Zrotation Yrotation Xrotation 
	JOINT Left_hip
	{
		OFFSET 0.076090 -0.089427 -0.010735
		CHANNELS 3 Zrotation Yrotation Xrotation
		JOINT Left_knee
		{
			OFFSET 0.030200 -0.359518 -0.003501
			CHANNELS 3 Zrotation Yrotation Xrotation
			JOINT Left_ankle
			{
				OFFSET -0.011005 -0.371022 -0.045888
				CHANNELS 3 Zrotation Yrotation Xrotation
				JOINT Left_foot
				{
					OFFSET 0.023930 -0.052103 0.111084
					CHANNELS 3 Zrotation Yrotation Xrotation
					End Site
					{
						OFFSET 0.000000 0.000000 0.000000
					}
				}
			}
		}
	}
	JOINT Right_hip
	{
		OFFSET -0.073836 -0.088112 -0.007709
		CHANNELS 3 Zrotation Yrotation Xrotation
		JOINT Right_knee
		{
			OFFSET -0.035715 -0.367809 -0.006536
			CHANNELS 3 Zrotation Yrotation Xrotation
			JOINT Right_ankle
			{
				OFFSET 0.013718 -0.371958 -0.043815
				CHANNELS 3 Zrotation Yrotation Xrotation
				JOINT Right_foot
				{
					OFFSET -0.021936 -0.046387 0.114542
					CHANNELS 3 Zrotation Yrotation Xrotation
					End Site
					{
						OFFSET 0.000000 0.000000 0.000000
					}
				}
			}
		}
	}
	JOINT Spine1
	{
		OFFSET -0.001865 0.102064 -0.019455
		CHANNELS 3 Zrotation Yrotation Xrotation
		JOINT Spine2
		{
			OFFSET 0.003082 0.129260 -0.001938
			CHANNELS 3 Zrotation Yrotation Xrotation
			JOINT Spine3
			{
				OFFSET 0.001104 0.048093 0.026561
				CHANNELS 3 Zrotation Yrotation Xrotation
				JOINT Neck
				{
					OFFSET -0.002010 0.204222 -0.047183
					CHANNELS 3 Zrotation Yrotation Xrotation
					JOINT Head
					{
						OFFSET 0.005050 0.063649 0.048489
						CHANNELS 3 Zrotation Yrotation Xrotation
						End Site
						{
							OFFSET 0.000000 0.000000 0.000000
						}
					}
				}
				JOINT Left_collar
				{
					OFFSET 0.072979 0.114065 -0.031633
					CHANNELS 3 Zrotation Yrotation Xrotation
					JOINT Left_shoulder
					{
						OFFSET 0.083419 0.032092 -0.006530
						CHANNELS 3 Zrotation Yrotation Xrotation
						JOINT Left_elbow
						{
							OFFSET 0.239393 -0.012014 -0.025060
							CHANNELS 3 Zrotation Yrotation Xrotation
							JOINT Left_wrist
							{
								OFFSET 0.227297 0.008116 0.000384
								CHANNELS 3 Zrotation Yrotation Xrotation
								JOINT Left_palm
								{
									OFFSET 0.074607 -0.009248 -0.012277
									CHANNELS 3 Zrotation Yrotation Xrotation
									End Site
									{
										OFFSET 0.000000 0.000000 0.000000
									}
								}
							}
						}
					}
				}
				JOINT Right_collar
				{
					OFFSET -0.074980 0.111880 -0.037894
					CHANNELS 3 Zrotation Yrotation Xrotation
					JOINT Right_shoulder
					{
						OFFSET -0.087565 0.034353 -0.009323
						CHANNELS 3 Zrotation Yrotation Xrotation
						JOINT Right_elbow
						{
							OFFSET -0.236838 -0.013719 -0.019794
							CHANNELS 3 Zrotation Yrotation Xrotation
							JOINT Right_wrist
							{
								OFFSET -0.235053 0.006433 -0.003853
								CHANNELS 3 Zrotation Yrotation Xrotation
								JOINT Right_palm
								{
									OFFSET -0.075499 -0.006894 -0.009792
									CHANNELS 3 Zrotation Yrotation Xrotation
									End Site
									{
										OFFSET 0.000000 0.000000 0.000000
									}
								}
							}
						}
					}
				}
			}
		}
	}
}
MOTION
Frames: 12
Frame Time: 0.100000
0.000000 0.000000 0.000000 167.889380 47.429428 -21.196003 -0.835409 0.792735 9.535250 -2.317808 -8.678940 -6.256190 1.918884 8.074979 -5.715111 -0.313046 8.669880 -3.078065 3.000365 0.534271 9.598964 2.430881 8.702696 -6.265116 4.379866 -10.952647 -8.746307 -6.747769 10.206498 6.726843 1.523079 0.741194 0.947523 2.111039 -2.915631 2.726414 0.625421 -2.120966 0.524165 2.718531 -0.241725 -7.036630 -3.247269 -8.151320 7.817168 -32.125398 -4.551013 3.654664 -49.827668 -11.481654 9.297305 3.491660 -9.800882 7.466923 -7.633718 0.993517 3.509456 -10.628901 -5.670215 -10.972647 32.532728 7.011239 3.856151 45.657293 5.033056 14.853889 -6.314999 9.650473 -2.496351 5.974843 -2.333418 2.970021 13.508330 8.220165 -6.676004 
-0.002638 -0.000325 0.002536 167.871046 47.312038 -21.464287 -0.763159 1.101335 10.233729 -2.256434 -9.183972 -6.502863 1.043417 8.728859 -5.865502 0.947120 7.939142 -3.566866 2.966242 0.356914 10.210119 2.419224 9.307812 -6.395931 5.195057 -11.159986 -8.813315 -7.984200 10.051687 5.535567 1.602345 0.682387 0.811356 2.201241 -2.573109 2.806605 0.715105 -2.176003 1.578751 2.716310 -0.403687 -7.019222 -3.395775 -8.013765 7.421094 -31.675980 -0.268086 3.608830 -50.283947 -7.651649 7.998490 3.861787 -6.275477 6.698723 -7.382251 0.913399 2.124069 -10.401962 -5.591814 -11.353693 32.404184 3.972574 3.500002 45.859496 2.744448 14.578306 -5.930324 7.404417 -2.742323 5.692800 -2.604029 2.287344 13.525877 7.969487 -6.650129 
-0.004905 -0.000626 0.004170 167.885921 47.296016 -21.789800 -0.743179 1.322578 10.916576 -2.189356 -9.741657 -6.702358 0.391153 9.096611 -5.975061 1.925732 7.698488 -3.917024 2.907807 0.128293 10.834904 2.388003 9.691444 -6.488663 5.988905 -11.498375 -8.913288 -9.341634 10.323731 4.418671 1.706532 0.701783 0.647581 2.111586 -2.305565 2.895422 0.723798 -2.185137 2.263290 2.641822 -0.539855 -6.532719 -3.474395 -7.841113 7.334813 -31.510524 2.474972 3.359788 -50.397319 -5.307219 6.214254 3.979710 -1.523798 4.133117 -7.132120 1.453842 0.814124 -10.254225 -5.632963 -11.617447 32.222574 1.941970 3.262178 46.302056 1.138390 14.495145 -5.653622 6.990921 -3.262641 5.472780 -2.702428 1.372645 13.624314 7.884101 -6.495595 
-0.006186 -0.000664 0.004555 167.779869 47.617701 -22.090742 -0.776571 1.402295 11.230654 -2.143628 -10.034168 -6.764957 0.453635 9.035798 -5.905487 1.879225 7.635682 -3.994932 2.852583 0.056675 11.138245 2.423717 9.660569 -6.434329 5.652314 -11.586786 -8.997538 -8.966891 10.090641 4.583073 1.753816 0.712720 0.385619 2.109464 -2.351759 2.999926 0.693584 -2.225273 2.358264 2.448769 -0.366403 -5.774997 -3.824389 -7.536150 7.510911 -31.449154 2.710891 3.559618 -50.486591 -4.549279 6.358218 3.233242 -0.088677 5.381556 -7.853418 1.730370 1.468999 -10.449459 -5.666472 -12.259227 32.230359 1.713482 3.326297 46.478672 1.110302 14.461647 -5.515538 6.963468 -2.877604 5.679790 -2.689487 1.263845 13.816927 7.932258 -6.660260 
-0.006295 -0.000525 0.004074 167.715358 47.977529 -22.275813 -0.849252 1.224971 11.314882 -2.125895 -10.070525 -6.773400 0.679259 8.693377 -5.831853 1.535939 7.925534 -3.966859 2.818859 0.026021 11.298729 2.413450 9.278394 -6.469506 5.220918 -11.573065 -9.085973 -8.331211 10.125375 5.150537 1.784206 0.755022 0.098163 2.063103 -2.394997 2.915981 0.613202 -2.176404 1.946641 2.260397 -0.182047 -4.803189 -4.313775 -7.351340 8.539522 -31.728629 1.518392 3.522673 -50.689150 -5.889906 6.934359 3.258879 -1.684198 5.686237 -8.121263 1.707869 1.656795 -10.454120 -5.638112 -12.017363 32.401627 2.693802 3.377855 46.430924 2.360354 14.647905 -5.758636 8.133258 -2.953455 5.759453 -2.563701 1.366218 13.755185 7.969751 -6.528669 
-0.004789 -0.000237 0.002318 167.677076 48.435662 -22.401356 -0.955217 0.946589 11.102092 -2.172314 -9.915671 -6.580452 1.194090 8.142001 -5.730101 0.779186 8.501026 -3.794792 2.799345 0.065319 11.209730 2.401641 8.775935 -6.390540 4.575402 -11.582901 -9.189531 -7.404354 10.340304 6.027747 1.812804 0.780466 -0.073755 1.936720 -2.639990 2.955249 0.446923 -2.165376 1.194755 1.984849 0.027406 -4.141235 -4.643458 -7.191904 9.359494 -32.225486 -1.438380 3.570235 -50.489805 -8.702995 8.022218 3.328358 -5.166272 6.130328 -7.893728 1.671715 2.275153 -10.607957 -5.672842 -11.550763 32.535220 4.791391 3.618904 46.146164 4.117400 15.030228 -6.137548 10.842447 -2.765201 5.723189 -2.268952 1.724916 13.734057 8.146819 -6.427410 
-0.001059 -0.000187 -0.000235 167.775524 48.724604 -22.189232 -0.965501 0.676745 10.593484 -2.349020 -9.452410 -6.545497 2.083043 7.457701 -5.445774 -0.747231 8.891068 -3.215640 2.795521 0.274923 10.652240 2.424067 8.118912 -6.175730 3.227627 -11.123834 -9.137858 -5.224671 9.722875 7.541241 1.799481 0.770532 0.187321 1.821695 -3.052609 3.186157 0.333614 -2.103266 0.137175 1.225953 0.334359 -4.963031 -4.673303 -7.111988 7.962264 -32.143141 -5.596771 3.934065 -49.712092 -11.844177 9.963573 2.970455 -11.875149 9.053948 -8.215338 1.107342 3.320589 -10.852845 -5.573503 -11.063276 32.445732 7.754107 4.087354 45.797229 6.077463 15.083869 -6.556470 13.413323 -1.901897 6.058839 -1.979045 2.191202 13.687381 8.354218 -6.558337 
0.006907 0.000280 -0.004801 167.596199 49.168080 -21.369850 -0.865620 -0.175309 8.834127 -2.499699 -8.450828 -6.506297 2.020524 7.147423 -4.988885 -0.987041 8.329708 -3.020082 2.957445 0.576324 8.741555 2.485815 7.120889 -5.740481 2.808712 -10.591934 -8.896492 -4.170255 9.134048 8.516685 1.588721 0.604715 1.199774 2.022490 -3.023083 2.603943 0.616541 -1.868115 -0.674380 0.050500 1.055190 -7.423156 -4.796083 -6.868304 6.848361 -30.387624 -7.573303 4.254475 -50.085553 -14.121581 12.972955 2.357913 -28.884689 13.333299 -7.134780 -1.925164 0.538501 -10.358708 -4.998913 -8.709401 32.062617 9.940768 4.424493 45.311535 7.674519 15.213231 -6.663190 16.177281 -1.024394 5.980776 -1.318079 2.255377 12.789819 8.004577 -6.338665 
0.017686 0.000985 -0.010893 167.204642 49.377498 -20.678132 -0.768336 -1.788497 6.559504 -2.580748 -6.853640 -5.987933 1.695973 7.835035 -4.524137 -0.179868 6.621303 -3.323408 3.035668 0.970906 6.643825 2.822247 6.104694 -5.507167 2.904936 -9.737526 -8.150076 -3.904786 8.219668 9.301909 1.034505 0.649861 2.297967 2.903010 -2.482375 2.047504 1.445090 -1.288221 -0.607666 -1.526872 1.611557 -7.171535 -5.024564 -6.314439 8.146029 -25.467950 -7.542513 5.400119 -52.691346 -15.022593 18.217646 -3.411038 -56.872382 24.066607 -4.554085 -6.983478 -9.138757 -8.970331 -3.797714 -4.284567 30.521592 11.153453 5.445737 45.029452 9.063526 15.185026 -6.400594 19.649393 0.310723 5.699989 -0.544099 0.396336 11.078742 7.051043 -5.850753 
0.030130 0.001078 -0.018405 167.875899 48.593384 -20.809371 -0.313229 -3.208080 6.877082 -3.531530 -4.072929 -7.053795 -4.126058 10.832693 -3.062795 7.863136 -1.212345 -2.637482 2.161409 0.367470 5.901608 4.129721 3.449975 -4.445918 8.375218 -6.483765 -5.568374 -10.386095 7.248190 7.710458 0.018150 1.334445 1.896856 4.164697 -2.813964 7.263089 1.708559 0.125485 -0.658856 -4.048578 3.859619 -5.452971 -3.531415 -7.231152 12.387501 -23.591206 -10.357890 6.243715 -48.928410 -13.116605 28.729366 -29.520604 -83.495258 45.308517 4.277542 -15.363933 -30.683336 -10.826034 -2.203814 -0.500443 31.451284 13.944503 8.737440 41.117527 11.424488 17.077796 -5.688256 21.163684 -5.483172 6.232023 2.961215 -2.140586 8.496194 6.048986 -6.432394 
0.043464 0.001857 -0.027581 168.175740 48.435135 -20.161954 -0.180841 -4.246054 5.267476 -3.718108 -3.159598 -6.782185 -5.622676 11.791247 -2.318885 10.845021 -2.186136 -3.691428 1.846955 0.737035 4.085910 4.498423 2.973040 -3.905166 9.524697 -6.970793 -5.107449 -12.076884 8.210458 7.784097 0.270054 1.093575 3.838322 4.247330 -2.478003 7.757893 1.506357 0.201362 0.826335 -3.416768 6.048745 -2.518627 -4.296803 -6.102086 19.044613 -22.032730 -8.607494 7.038759 -50.488159 -10.778205 32.424016 -133.732328 -79.734777 150.472380 4.444539 -17.946836 -40.369635 -9.956071 -1.576154 1.589282 30.443660 13.342227 8.925581 41.557202 13.208731 17.951842 -5.205861 22.259845 -6.506775 7.184856 3.085260 -3.102536 7.417295 5.552111 -6.385889 
0.058231 0.003590 -0.037640 168.154714 48.687923 -18.781553 0.058133 -4.587135 2.353424 -3.731905 -2.500670 -6.525595 -6.459880 11.879416 -1.224784 12.611068 -2.016371 -4.611593 1.676890 0.947299 1.285177 4.749979 2.335246 -3.702242 10.091481 -7.005209 -4.192457 -12.984465 8.036006 7.672448 0.848475 1.040417 6.518147 4.043601 -1.897309 8.110674 1.417547 0.323889 1.924691 -2.929823 6.096269 0.091587 -4.458703 -5.750600 22.406198 -22.221702 -6.355441 7.579029 -52.606904 -7.846253 33.768340 -136.609713 -76.114304 154.618384 3.150342 -19.234617 -41.263602 -9.708675 -1.556466 0.747144 29.695261 12.271086 9.120464 41.896684 13.317635 17.793357 -5.295618 23.162214 -6.832573 7.848524 3.124255 -2.631199 7.102414 5.388825 -6.900436 
